# xmcd
#
# Track frame offsets: 
#        150
#        17257
#        32298
#        49462
#        60867
#        77555
#        93465
#        111330
#        127663
#        152227
#        165104
#        181275
#        197134
#        208864
#        221546
#        232705
#        243530
#
# Disc length: 3483 seconds
#
# Revision: 2
# Processed by: cddbd v1.5.2PL0 Copyright (c) Steve Scherf et al.
# Submitted via: ExactAudioCopy v0.99pb4
#
DISCID=cc0d9911
DTITLE=Renzo Arbore e gli Arborigeni - Vintage! ...ma non li dimostra 
DTITLE=(Cd2)
DYEAR=2005
DGENRE=Jazz+Funk
TTITLE0=Por dos besos
TTITLE1=Macariolita
TTITLE2=The matress
TTITLE3=Letto di bambù
TTITLE4=Zumpao
TTITLE5=In cerca di te
TTITLE6=A pretty love song
TTITLE7=Desesperadamente
TTITLE8=Cumbà Giuann
TTITLE9=Heebie jeebies
TTITLE10=Sono tre parole
TTITLE11=Spontaneous combustion
TTITLE12=Luisa
TTITLE13=Mambo Italiano
TTITLE14=Il ribelle
TTITLE15=Musica
TTITLE16=Signori
EXTD=
EXTT0=
EXTT1=
EXTT2=
EXTT3=
EXTT4=
EXTT5=
EXTT6=
EXTT7=
EXTT8=
EXTT9=
EXTT10=
EXTT11=
EXTT12=
EXTT13=
EXTT14=
EXTT15=
EXTT16=
PLAYORDER=
